<svg width="147" height="168" viewBox="0 0 147 168" fill="none" xmlns="http://www.w3.org/2000/svg">
<path fill-rule="evenodd" clip-rule="evenodd" d="M0.357873 135.796C0.124433 133.318 0 130.809 0 128.27C0 84.497 35.4852 49.012 79.2582 49.012C83.0784 49.012 86.8336 49.288 90.5094 49.8105V102.069C87.2041 100.879 83.6697 100.255 80.1082 100.255C65.4669 100.255 51.7395 110.965 51.7395 126.214C51.7395 129.785 52.404 132.974 53.5919 135.796H0.357873Z" fill="white"/>
<path fill-rule="evenodd" clip-rule="evenodd" d="M78.5772 56.0404C37.5129 55.6678 7.29521 89.5664 7.02759 127.483C10.151 92.5847 33.5364 59.178 78.5772 56.0404Z" fill="#CC9211"/>
<path fill-rule="evenodd" clip-rule="evenodd" d="M78.4939 60.3451C38.7009 60.2484 11.5918 92.9485 11.3486 127.393C14.1862 95.6904 35.4414 63.5392 78.4939 60.3451Z" fill="#CC9211"/>
<path fill-rule="evenodd" clip-rule="evenodd" d="M78.4111 64.6499C39.8891 64.8286 15.8885 96.3301 15.6699 127.304C18.2215 98.7958 37.3464 67.9003 78.4111 64.6499Z" fill="#CC9211"/>
<path fill-rule="evenodd" clip-rule="evenodd" d="M78.3281 68.9546C41.0772 69.4088 20.1854 99.7122 19.9912 127.214C22.2567 101.901 39.2515 72.2612 78.3281 68.9546Z" fill="#CC9211"/>
<path fill-rule="evenodd" clip-rule="evenodd" d="M78.2451 73.2594C42.2655 73.9892 24.4821 103.094 24.3125 127.124C26.292 105.007 41.1565 76.6223 78.2451 73.2594Z" fill="#CC9211"/>
<path fill-rule="evenodd" clip-rule="evenodd" d="M78.1621 77.5641C43.4534 78.5694 28.7787 106.476 28.6335 127.035C30.327 108.112 43.0613 80.9835 78.1621 77.5641Z" fill="#CC9211"/>
<path fill-rule="evenodd" clip-rule="evenodd" d="M78.079 81.869C44.6414 83.1499 33.0753 109.858 32.9546 126.945C34.3623 111.218 44.9665 85.3446 78.079 81.869Z" fill="#CC9211"/>
<path fill-rule="evenodd" clip-rule="evenodd" d="M77.9962 86.1736C45.8298 87.73 37.3722 113.24 37.2761 126.855C38.3978 114.324 46.8718 89.7057 77.9962 86.1736Z" fill="#CC9211"/>
<path fill-rule="evenodd" clip-rule="evenodd" d="M77.9132 90.4785C47.0179 92.3103 41.6691 116.621 41.5974 126.766C42.4331 117.429 48.7768 94.0666 77.9132 90.4785Z" fill="#CC9211"/>
<path fill-rule="evenodd" clip-rule="evenodd" d="M77.8302 94.7832C48.2058 96.8906 45.9655 120.003 45.9185 126.676C46.4682 120.534 50.6816 98.4278 77.8302 94.7832Z" fill="#CC9211"/>
<path fill-rule="evenodd" clip-rule="evenodd" d="M100.056 140.967C103.664 138.991 105.5 135.5 106.647 133.412C108.294 129.294 109.118 125.588 109.118 119.412V68.7647C109.118 57.603 108.847 44.0664 109.118 32.9412C122.198 34.6352 134.308 44.7058 138.082 57.6178C141.029 67.6993 139.95 79.9812 137.996 90.4619C137.528 92.9751 135.971 98.3344 135.9 100.398C136.391 99.4434 137.399 98.1019 138.048 96.9975C138.849 95.6337 139.431 94.5074 140.134 93.1263C142.971 87.5466 144.931 82.223 146.411 75.9769L147 65.4706L146.411 56.4118C145.628 54.5567 143.984 47.035 137.996 37.8824C130.301 26.1199 115.732 24.9453 109.118 14.4118C107.087 11.1784 108.793 5.86371 106.235 3.29412C103.237 0.281864 102.668 0.411765 98.8236 0V118.176C95.7639 110.718 88.3919 105.212 79.0346 105.212C67.0338 105.212 57.3052 113.959 57.3052 124.75C57.3052 144.995 85.9091 148.713 100.056 140.967Z" fill="white"/>
<path fill-rule="evenodd" clip-rule="evenodd" d="M6.5053 156.882C4.79067 156.882 3.55962 156.471 2.79012 155.627C2.02062 154.783 1.64697 153.441 1.64697 151.579V149.761H5.05834V152.29C5.05834 153.221 5.66992 153.462 6.26361 153.462C6.59339 153.462 6.83509 153.354 6.96704 153.159C7.09899 152.964 7.16488 152.64 7.16488 152.185C7.16488 151.579 7.09899 151.081 6.94502 150.67C6.79123 150.28 6.61523 149.955 6.39537 149.674C6.15367 149.414 5.75782 149.003 5.16432 148.44L3.53759 146.838C2.28452 145.626 1.64697 144.284 1.64697 142.812C1.64697 141.232 2.02062 140.019 2.7681 139.175C3.49355 138.352 4.57082 137.941 5.99971 137.941C7.6925 137.941 8.92354 138.374 9.67102 139.262C10.4185 140.149 10.5148 141.556 10.5148 143.44L7.09437 143.44V142.249C7.09437 142.011 6.85711 141.729 6.72516 141.578C6.57137 141.426 6.37335 141.361 6.13166 141.361C5.84592 141.361 5.62605 141.448 5.47208 141.6C5.31829 141.751 5.25222 141.968 5.25222 142.249C5.25222 142.855 5.60403 143.483 6.30746 144.132L8.50585 146.21C9.01145 146.708 9.45116 147.163 9.78095 147.596C10.1107 148.05 10.3965 148.57 10.5943 149.154C10.7921 149.761 10.9021 150.475 10.9021 151.297C10.9021 153.137 10.5723 154.523 9.89088 155.454C9.20929 156.406 8.06614 156.882 6.5053 156.882ZM16.6618 156.882C15.1449 156.882 13.9797 156.428 13.1884 155.497C12.397 154.588 12.0012 153.311 12.0012 151.644V142.79C12.0012 141.188 12.397 139.976 13.1884 139.153C13.9797 138.352 15.1449 137.941 16.6618 137.941C18.1786 137.941 19.3438 138.352 20.1352 139.153C20.9267 139.976 21.3223 141.188 21.3223 142.79V151.644C21.3223 153.311 20.9267 154.61 20.1352 155.519C19.3438 156.428 18.1786 156.882 16.6618 156.882ZM16.6618 153.462C16.9916 153.462 17.2333 153.311 17.3433 153.029C17.4532 152.748 17.5193 152.337 17.5193 151.817V142.725C17.5193 142.314 17.4752 141.989 17.3653 141.729C17.2554 141.491 17.0135 141.361 16.6837 141.361C16.0461 141.361 15.7386 141.838 15.7386 142.768V151.839C15.7386 152.38 15.8044 152.77 15.9364 153.051C16.0682 153.332 16.31 153.462 16.6618 153.462ZM27.2139 156.882C25.6531 156.882 24.5099 156.45 23.7624 155.584C22.9931 154.718 22.6193 153.441 22.6193 151.73V138.114H26.2906V151.579C26.2906 152.163 26.3565 152.64 26.4664 152.964C26.5763 153.289 26.8402 153.462 27.2139 153.462C27.5877 153.462 27.8514 153.289 27.9614 152.964C28.0713 152.64 28.1372 152.185 28.1372 151.579V138.114H31.8085V151.73C31.8085 153.441 31.4349 154.718 30.6874 155.584C29.9179 156.45 28.7747 156.882 27.2139 156.882ZM33.2594 156.709V138.114H37.1506L38.8872 147.011V138.114H42.5365V156.709H38.8432L36.9526 147.401V156.709H33.2594ZM44.2073 138.114H49.4174C50.7584 138.114 51.7696 138.482 52.451 139.218C53.1326 139.954 53.4624 141.037 53.4844 142.487L53.5283 151.189C53.5503 153.029 53.2205 154.393 52.561 155.324C51.9016 156.255 50.8023 156.709 49.2855 156.709H44.2073V138.114ZM48.67 153.419C49.3514 153.419 49.7032 153.094 49.7032 152.423V142.833C49.7032 142.422 49.6812 142.097 49.6153 141.881C49.5492 141.686 49.4174 141.535 49.2414 141.47C49.0656 141.405 48.8019 141.361 48.4281 141.361H48.0104V153.419H48.67Z" fill="white"/>
<path fill-rule="evenodd" clip-rule="evenodd" d="M1.96777 167.685V161.362H3.22171L4.71397 165.839C4.8554 166.254 4.95248 166.563 5.023 166.775C5.09372 166.546 5.20858 166.201 5.35861 165.76L6.87744 161.362H7.99892V167.685H7.19527V162.395L5.34982 167.685H4.59929L2.77143 162.298V167.685H1.96777Z" fill="white"/>
<path fill-rule="evenodd" clip-rule="evenodd" d="M24.1648 167.685L26.593 161.362H27.5113L30.0899 167.685H29.1362L28.4033 165.768H25.7454L25.0566 167.685H24.1648ZM25.9925 165.089H28.1471L27.4849 163.331C27.2818 162.802 27.1317 162.36 27.0346 162.016C26.9463 162.431 26.8315 162.828 26.6813 163.234L25.9925 165.089Z" fill="white"/>
<path fill-rule="evenodd" clip-rule="evenodd" d="M46.2383 167.685V161.362H47.0771V164.497L50.2206 161.362H51.3509L48.7018 163.923L51.4658 167.685H50.3619L48.1101 164.497L47.0771 165.495V167.685H46.2383Z" fill="white"/>
<path fill-rule="evenodd" clip-rule="evenodd" d="M67.7024 167.685V161.362H72.2677V162.104H68.5412V164.046H72.0293V164.788H68.5412V166.943H72.4177V167.685H67.7024Z" fill="white"/>
<path fill-rule="evenodd" clip-rule="evenodd" d="M89.1135 167.685V161.362H91.9127C92.4778 161.362 92.9105 161.415 93.2019 161.53C93.4934 161.645 93.7317 161.848 93.8995 162.13C94.0761 162.422 94.1644 162.74 94.1644 163.084C94.1644 163.534 94.0232 163.914 93.7317 164.223C93.4403 164.524 92.99 164.718 92.3895 164.806C92.6102 164.912 92.778 165.018 92.8929 165.124C93.1312 165.345 93.3698 165.627 93.5817 165.963L94.6766 167.685H93.6346L92.7958 166.369C92.5485 165.989 92.3541 165.698 92.1953 165.495C92.0363 165.292 91.8951 165.15 91.7714 165.071C91.6478 164.991 91.5153 164.938 91.3829 164.903C91.2946 164.885 91.1356 164.877 90.9236 164.877H89.9524V167.685H89.1135ZM89.9524 164.153H91.7449C92.1334 164.153 92.4249 164.108 92.6456 164.029C92.8576 163.958 93.0254 163.826 93.1312 163.649C93.2461 163.482 93.299 163.287 93.299 163.084C93.299 162.784 93.1932 162.537 92.9724 162.351C92.7605 162.157 92.4161 162.06 91.948 162.06H89.9524V164.153Z" fill="white"/>
<path fill-rule="evenodd" clip-rule="evenodd" d="M110.72 165.654L111.506 165.583C111.542 165.901 111.63 166.157 111.771 166.369C111.904 166.572 112.116 166.731 112.407 166.863C112.69 166.987 113.016 167.049 113.37 167.049C113.696 167.049 113.97 167.005 114.217 166.908C114.464 166.81 114.641 166.678 114.765 166.51C114.879 166.342 114.941 166.166 114.941 165.972C114.941 165.777 114.888 165.601 114.774 165.451C114.659 165.309 114.464 165.186 114.2 165.08C114.032 165.018 113.652 164.912 113.078 164.771C112.495 164.629 112.089 164.506 111.851 164.382C111.55 164.223 111.33 164.02 111.18 163.791C111.029 163.552 110.959 163.287 110.959 163.005C110.959 162.678 111.047 162.378 111.232 162.104C111.409 161.83 111.674 161.618 112.027 161.468C112.372 161.327 112.76 161.256 113.184 161.256C113.652 161.256 114.067 161.327 114.42 161.486C114.782 161.636 115.056 161.857 115.25 162.148C115.445 162.44 115.542 162.775 115.559 163.146L114.756 163.208C114.712 162.81 114.57 162.51 114.323 162.307C114.067 162.095 113.705 161.998 113.219 161.998C112.707 161.998 112.345 162.086 112.107 162.272C111.877 162.457 111.762 162.687 111.762 162.943C111.762 163.172 111.842 163.358 112.01 163.508C112.169 163.649 112.592 163.808 113.272 163.958C113.952 164.108 114.42 164.25 114.667 164.364C115.038 164.532 115.312 164.744 115.48 165C115.656 165.265 115.745 165.565 115.745 165.901C115.745 166.237 115.648 166.554 115.453 166.846C115.268 167.146 114.985 167.376 114.632 167.543C114.27 167.711 113.864 167.791 113.414 167.791C112.84 167.791 112.363 167.711 111.974 167.543C111.586 167.376 111.286 167.119 111.065 166.784C110.844 166.457 110.729 166.077 110.72 165.654Z" fill="white"/>
<path fill-rule="evenodd" clip-rule="evenodd" d="M58.8411 147.054H115.746V147.75H58.8411V147.054Z" fill="white"/>
<path fill-rule="evenodd" clip-rule="evenodd" d="M58.8411 157.487H115.746V158.182H58.8411V157.487Z" fill="white"/>
<path fill-rule="evenodd" clip-rule="evenodd" d="M58.8411 154.878H115.746V155.574H58.8411V154.878Z" fill="white"/>
<path fill-rule="evenodd" clip-rule="evenodd" d="M58.8411 152.27H115.746V152.966H58.8411V152.27Z" fill="white"/>
<path fill-rule="evenodd" clip-rule="evenodd" d="M58.8411 149.662H115.746V150.358H58.8411V149.662Z" fill="white"/>
</svg>
