<svg width="198" height="44" viewBox="0 0 198 44" fill="none" xmlns="http://www.w3.org/2000/svg">
<path fill-rule="evenodd" clip-rule="evenodd" d="M8.38825 27.9205C5.42782 27.9205 3.30232 27.3142 1.97373 26.0699C0.645131 24.8254 0 22.847 0 20.1028V17.4225H5.88996V21.1509C5.88996 22.523 6.94591 22.879 7.97095 22.879C8.54035 22.879 8.95765 22.7194 9.18547 22.4323C9.4133 22.1451 9.52705 21.6664 9.52705 20.9962C9.52705 20.1028 9.4133 19.3689 9.14745 18.7626C8.88192 18.1883 8.57805 17.7096 8.19845 17.2949C7.78114 16.9118 7.09767 16.3056 6.07294 15.4761L3.26429 13.1149C1.10077 11.3277 0 9.34935 0 7.1797C0 4.85022 0.645132 3.06337 1.93571 1.81885C3.18826 0.606293 5.04823 0 7.51531 0C10.438 0 12.5635 0.63826 13.8541 1.94644C15.1447 3.25489 15.3109 5.32891 15.3109 8.10511L9.40532 8.10511V6.34993C9.40532 5.99884 8.99567 5.58411 8.76785 5.36088C8.50232 5.13739 8.16044 5.04176 7.74313 5.04176C7.24978 5.04176 6.87017 5.16935 6.60432 5.39284C6.33879 5.61607 6.22472 5.93518 6.22472 6.34993C6.22472 7.24336 6.83214 8.16876 8.04667 9.12612L11.8423 12.1895C12.7153 12.9233 13.4745 13.5933 14.0439 14.2315C14.6133 14.9018 15.1066 15.6676 15.4482 16.5291C15.7898 17.4225 15.9796 18.4755 15.9796 19.688C15.9796 22.4003 15.4102 24.4424 14.2337 25.8145C13.0569 27.2186 11.0832 27.9205 8.38825 27.9205ZM25.9243 27.9205C23.3051 27.9205 21.2934 27.2505 19.9271 25.8784C18.5607 24.5383 17.8773 22.6555 17.8773 20.1984V7.14774C17.8773 4.78656 18.5607 2.99944 19.9271 1.78688C21.2934 0.606294 23.3051 0 25.9243 0C28.5431 0 30.5549 0.606294 31.9212 1.78688C33.2878 2.99944 33.9709 4.78656 33.9709 7.14774V20.1984C33.9709 22.6555 33.2878 24.5702 31.9212 25.9104C30.5549 27.2505 28.5431 27.9205 25.9243 27.9205ZM25.9243 22.879C26.4937 22.879 26.911 22.6555 27.1008 22.2407C27.2906 21.826 27.4046 21.2197 27.4046 20.4539V7.0521C27.4046 6.44583 27.3286 5.96714 27.1388 5.58409C26.949 5.23326 26.5314 5.04176 25.962 5.04176C24.8612 5.04176 24.3301 5.74366 24.3301 7.11577V20.4858C24.3301 21.2834 24.4439 21.858 24.6717 22.2727C24.8992 22.6875 25.3168 22.879 25.9243 22.879ZM44.1431 27.9205C41.4482 27.9205 39.4745 27.2825 38.1839 26.006C36.8557 24.7295 36.2102 22.847 36.2102 20.3263V0.255453H42.549V20.1028C42.549 20.9643 42.6627 21.6664 42.8525 22.1451C43.0423 22.6238 43.498 22.879 44.1431 22.879C44.7886 22.879 45.2439 22.6238 45.4337 22.1451C45.6235 21.6664 45.7372 20.9962 45.7372 20.1028V0.255453H52.0761V20.3263C52.0761 22.847 51.4309 24.7295 50.1403 26.006C48.8117 27.2825 46.838 27.9205 44.1431 27.9205ZM54.5812 27.6653V0.255453H61.2995L64.298 13.3701V0.255453H70.5988V27.6653H64.2219L60.9576 13.9444V27.6653H54.5812ZM73.4835 0.255453H82.4791C84.7944 0.255453 86.5404 0.797816 87.7169 1.88277C88.8937 2.96773 89.4631 4.56306 89.5011 6.70102L89.5768 19.5285C89.6148 22.2407 89.0454 24.2511 87.9066 25.6232C86.7682 26.9953 84.8702 27.6653 82.2513 27.6653H73.4835V0.255453ZM81.1886 22.8151C82.3651 22.8151 82.9725 22.3364 82.9725 21.3473V7.21141C82.9725 6.60539 82.9345 6.1267 82.8207 5.80758C82.7066 5.52042 82.4791 5.29695 82.1753 5.20132C81.8717 5.10542 81.4164 5.04176 80.771 5.04176H80.0498V22.8151H81.1886Z" fill="white"/>
<path fill-rule="evenodd" clip-rule="evenodd" d="M0.553711 43.8436V34.524H2.71872L5.29521 41.1233C5.5394 41.7349 5.70702 42.1905 5.82878 42.5029C5.95088 42.1646 6.1492 41.6569 6.40824 41.0061L9.03059 34.524H10.9669V43.8436H9.57935V36.047L6.39305 43.8436H5.09722L1.94129 35.9036V43.8436H0.553711Z" fill="white"/>
<path fill-rule="evenodd" clip-rule="evenodd" d="M38.8787 43.8436L43.0711 34.524H44.6566L49.1087 43.8436H47.4621L46.1967 41.0191H41.6076L40.4184 43.8436H38.8787ZM42.0343 40.017H45.7545L44.6111 37.4266C44.2603 36.6457 44.0013 35.9949 43.8337 35.4872C43.6812 36.0988 43.4829 36.6848 43.2235 37.2835L42.0343 40.017Z" fill="white"/>
<path fill-rule="evenodd" clip-rule="evenodd" d="M76.9902 43.8436V34.524H78.4385V39.1448L83.8661 34.524H85.8176L81.2437 38.2988L86.0159 43.8436H84.1099L80.2221 39.1448L78.4385 40.6157V43.8436H76.9902Z" fill="white"/>
<path fill-rule="evenodd" clip-rule="evenodd" d="M114.05 43.8436V34.524H121.932V35.6174H115.498V38.4808H121.52V39.5744H115.498V42.7503H122.191V43.8436H114.05Z" fill="white"/>
<path fill-rule="evenodd" clip-rule="evenodd" d="M151.017 43.8436V34.524H155.85C156.826 34.524 157.573 34.602 158.076 34.7714C158.579 34.9404 158.991 35.2398 159.28 35.6565C159.585 36.0859 159.738 36.5544 159.738 37.062C159.738 37.7261 159.494 38.2858 158.991 38.7414C158.488 39.184 157.71 39.4702 156.673 39.6004C157.054 39.7567 157.344 39.9128 157.542 40.0688C157.954 40.3942 158.366 40.8109 158.732 41.3056L160.622 43.8436H158.823L157.375 41.9043C156.948 41.3445 156.612 40.9151 156.338 40.6157C156.063 40.3162 155.82 40.108 155.606 39.9908C155.393 39.8736 155.164 39.7956 154.935 39.7435C154.783 39.7175 154.508 39.7046 154.142 39.7046H152.465V43.8436H151.017ZM152.465 38.6371H155.56C156.231 38.6371 156.734 38.5721 157.115 38.4549C157.481 38.3506 157.771 38.1557 157.954 37.8954C158.152 37.648 158.244 37.3615 158.244 37.062C158.244 36.6197 158.061 36.2552 157.68 35.9819C157.314 35.6954 156.719 35.5523 155.911 35.5523H152.465V38.6371Z" fill="white"/>
<path fill-rule="evenodd" clip-rule="evenodd" d="M188.323 40.8501L189.68 40.7459C189.741 41.2144 189.894 41.5919 190.137 41.9043C190.366 42.2038 190.732 42.4379 191.235 42.6331C191.723 42.8154 192.287 42.9067 192.897 42.9067C193.461 42.9067 193.934 42.8416 194.361 42.6982C194.788 42.5551 195.092 42.3598 195.306 42.1125C195.504 41.8651 195.611 41.6048 195.611 41.3186C195.611 41.0321 195.519 40.7718 195.321 40.5506C195.123 40.3424 194.788 40.1602 194.33 40.0038C194.04 39.9128 193.385 39.7567 192.394 39.5483C191.387 39.3401 190.686 39.1578 190.275 38.9755C189.756 38.7414 189.375 38.4419 189.116 38.1036C188.857 37.752 188.735 37.3615 188.735 36.9451C188.735 36.4634 188.887 36.0208 189.207 35.6174C189.512 35.214 189.97 34.9016 190.58 34.6801C191.174 34.4719 191.845 34.3677 192.577 34.3677C193.385 34.3677 194.102 34.4719 194.711 34.7063C195.336 34.9275 195.809 35.2529 196.144 35.6825C196.48 36.1121 196.648 36.6065 196.678 37.1533L195.29 37.2443C195.214 36.6586 194.97 36.216 194.544 35.9169C194.102 35.6044 193.476 35.4611 192.638 35.4611C191.753 35.4611 191.128 35.5912 190.717 35.8648C190.32 36.138 190.122 36.4764 190.122 36.8539C190.122 37.1922 190.259 37.4658 190.549 37.6869C190.824 37.8954 191.555 38.1295 192.729 38.3507C193.903 38.5721 194.711 38.7803 195.138 38.9496C195.778 39.197 196.251 39.5094 196.541 39.8869C196.846 40.2773 196.998 40.72 196.998 41.2144C196.998 41.7091 196.83 42.1776 196.495 42.6072C196.175 43.0498 195.687 43.3881 195.077 43.6355C194.452 43.8828 193.751 44 192.973 44C191.982 44 191.159 43.8828 190.488 43.6355C189.817 43.3881 189.299 43.0106 188.918 42.5159C188.537 42.0345 188.338 41.4747 188.323 40.8501Z" fill="white"/>
<path fill-rule="evenodd" clip-rule="evenodd" d="M99 6H197.25V7.02539H99V6Z" fill="white"/>
<path fill-rule="evenodd" clip-rule="evenodd" d="M99 21.3784H197.25V22.4039H99V21.3784Z" fill="white"/>
<path fill-rule="evenodd" clip-rule="evenodd" d="M99 17.5337H197.25V18.5591H99V17.5337Z" fill="white"/>
<path fill-rule="evenodd" clip-rule="evenodd" d="M99 13.6892H197.25V14.7147H99V13.6892Z" fill="white"/>
<path fill-rule="evenodd" clip-rule="evenodd" d="M99 9.84448H197.25V10.8699H99V9.84448Z" fill="white"/>
</svg>
